<?xml version="1.0" encoding="UTF-8"?>
<svg version="1.1" xmlns="http://www.w3.org/2000/svg" width="512" height="512">
<path d="M0 0 C1.01545898 0.19867676 2.03091797 0.39735352 3.07714844 0.60205078 C52.9758035 10.58327711 96.53871388 34.88580573 133 70 C133.7940625 70.7528125 134.588125 71.505625 135.40625 72.28125 C140.75597303 77.46114055 145.38660506 83.16405541 150 89 C151.19109375 90.48306641 151.19109375 90.48306641 152.40625 91.99609375 C175.32205725 121.03970389 191.22147176 154.85685587 199.6875 190.8125 C199.97306763 191.99936401 199.97306763 191.99936401 200.2644043 193.21020508 C204.22851721 210.89052902 205.555362 228.61292655 205.4375 246.6875 C205.43293793 248.18546112 205.43293793 248.18546112 205.42828369 249.71368408 C205.35621635 265.78341917 204.43972751 281.25213186 201 297 C200.78037598 298.02625488 200.56075195 299.05250977 200.33447266 300.10986328 C191.83138831 338.85817193 174.61772522 375.56726438 149 406 C148.57138672 406.51739746 148.14277344 407.03479492 147.70117188 407.56787109 C137.18164284 420.2564129 126.03816903 431.86528878 113 442 C111.52660156 443.18142578 111.52660156 443.18142578 110.0234375 444.38671875 C79.03075655 469.0530687 42.45229279 485.30136285 3.75 493.25 C3.01966553 493.40114258 2.28933105 493.55228516 1.53686523 493.70800781 C-13.82073758 496.67407563 -29.02143327 497.37492896 -44.625 497.3125 C-45.59588562 497.31034485 -46.56677124 497.3081897 -47.56707764 497.30596924 C-61.90585186 497.25491637 -75.90546967 496.85949913 -90 494 C-91.01545898 493.80132324 -92.03091797 493.60264648 -93.07714844 493.39794922 C-142.9758035 483.41672289 -186.53871388 459.11419427 -223 424 C-223.7940625 423.2471875 -224.588125 422.494375 -225.40625 421.71875 C-230.75597303 416.53885945 -235.38660506 410.83594459 -240 405 C-240.7940625 404.01128906 -241.588125 403.02257812 -242.40625 402.00390625 C-266.9776499 370.86198961 -283.32468106 334.48759715 -291.25 295.6875 C-291.47671387 294.57942993 -291.47671387 294.57942993 -291.70800781 293.44897461 C-292.18439803 290.97158418 -292.60252786 288.49133778 -293 286 C-293.17805176 284.88423584 -293.35610352 283.76847168 -293.53955078 282.61889648 C-295.19998488 270.98027732 -295.3987437 259.43103747 -295.375 247.6875 C-295.37445618 246.6738739 -295.37391235 245.6602478 -295.37335205 244.61590576 C-295.33347417 228.41878779 -294.46747801 212.87491635 -291 197 C-290.78037598 195.97374512 -290.56075195 194.94749023 -290.33447266 193.89013672 C-279.82149525 145.98280374 -255.85138923 104.15003587 -222 69 C-221.2471875 68.2059375 -220.494375 67.411875 -219.71875 66.59375 C-214.53885945 61.24402697 -208.83594459 56.61339494 -203 52 C-202.01128906 51.2059375 -201.02257812 50.411875 -200.00390625 49.59375 C-167.66655102 24.07913264 -130.33332447 7.86607287 -90 0 C-89.17274414 -0.16661133 -88.34548828 -0.33322266 -87.49316406 -0.50488281 C-59.91781494 -5.80488028 -27.50199116 -5.57960557 0 0 Z " fill="#4D3292" transform="translate(301,9)"/>
<path d="M0 0 C68.31 0 136.62 0 207 0 C207.0825 29.803125 207.165 59.60625 207.25 90.3125 C207.28641602 99.71403564 207.32283203 109.11557129 207.36035156 118.80200195 C207.37841797 130.30505371 207.37841797 130.30505371 207.3817749 135.69450378 C207.38549324 139.44911707 207.40044994 143.20350286 207.42230225 146.95805359 C207.44985386 151.7558038 207.45794349 156.5532259 207.4522891 161.35104787 C207.45347048 163.1064651 207.46133426 164.86189445 207.47686052 166.61724341 C207.65461984 187.70343953 207.65461984 187.70343953 201.07403946 195.19157887 C194.87270415 201.13612765 188.52882746 203.46533659 180.02101135 203.36076355 C179.24917511 203.3633316 178.47733887 203.36589966 177.68211365 203.36854553 C175.10369681 203.37348673 172.52587262 203.35698151 169.94750977 203.34057617 C168.06434364 203.33965665 166.18117648 203.34005853 164.29801083 203.34167194 C159.26369723 203.34234808 154.22959839 203.32498474 149.19533539 203.30384064 C144.46806678 203.2867316 139.74084991 203.28594997 135.0135498 203.28381348 C121.19650486 203.26808346 107.3794997 203.22619988 93.5625 203.1875 C62.686875 203.125625 31.81125 203.06375 0 203 C0 136.01 0 69.02 0 0 Z " fill="#FDFDFE" transform="translate(210,187)"/>
<path d="M0 0 C35.64 0 71.28 0 108 0 C108 67.32 108 134.64 108 204 C18 204 18 204 9 199 C3.23454772 193.23454772 -0.31146111 187.60725575 -0.38724393 179.2544046 C-0.3785054 178.55496906 -0.36976688 177.85553352 -0.36076355 177.13490295 C-0.36332682 176.37346479 -0.3658901 175.61202663 -0.36853105 174.82751459 C-0.37344724 172.29242334 -0.35701232 169.75793618 -0.34057617 167.22290039 C-0.33972943 165.3992311 -0.34020596 163.57556079 -0.34190369 161.75189209 C-0.34276322 156.81229146 -0.32514412 151.87291009 -0.30418181 146.93336034 C-0.28540813 141.76706257 -0.28366402 136.6007596 -0.28010559 131.43443298 C-0.27078717 121.65626914 -0.24617609 111.87820611 -0.21605712 102.10008663 C-0.17623155 88.88338468 -0.1600566 75.66665509 -0.14255047 62.44990826 C-0.1143549 41.63319668 -0.05458394 20.81669783 0 0 Z " fill="#FBFBFD" transform="translate(95,186)"/>
<path d="M0 0 C1.74282497 -0.00913666 1.74282497 -0.00913666 3.52085853 -0.01845789 C6.73754824 -0.03221098 9.95391316 -0.03254386 13.17061734 -0.02708292 C16.64315871 -0.02441006 20.11563505 -0.03894946 23.58815002 -0.05117798 C30.38863187 -0.07222472 37.18902844 -0.07677322 43.989539 -0.07499009 C49.51897392 -0.07368187 55.04838227 -0.0774897 60.57781219 -0.08491516 C62.17130208 -0.08701439 63.76479196 -0.089112 65.35828185 -0.09120798 C66.15144875 -0.09225151 66.94461564 -0.09329504 67.7618179 -0.09437019 C82.76092327 -0.11327015 97.75997972 -0.11222336 112.75909206 -0.10540086 C126.47076773 -0.09982789 140.18225641 -0.12064071 153.89388838 -0.15376133 C167.98087731 -0.18752379 182.06777673 -0.20266333 196.15480685 -0.1980443 C204.06037869 -0.19580189 211.96577779 -0.20100897 219.871315 -0.22593689 C226.60313474 -0.24698332 233.33468707 -0.25050927 240.06651792 -0.2316373 C243.49877919 -0.22249907 246.93054234 -0.22127641 250.36276436 -0.24199295 C254.09035944 -0.26017925 257.81663401 -0.24743792 261.54418945 -0.22705078 C262.61988858 -0.23956863 263.69558772 -0.25208648 264.80388379 -0.26498365 C272.74785474 -0.17203686 279.57383212 1.64962085 285.47144532 7.23768473 C298.42585375 21.56374715 291.52606201 34.2328851 291.52606201 57.39440918 C185.92606201 57.39440918 80.32606201 57.39440918 -28.47393799 57.39440918 C-28.47393799 16.39440918 -28.47393799 16.39440918 -23.47393799 8.39440918 C-15.98294767 1.2221844 -10.02095674 -0.04922536 0 0 Z " fill="#FEFEFE" transform="translate(124.47393798828125,121.6055908203125)"/>
<path d="M0 0 C7.92 0 15.84 0 24 0 C24 39.6 24 79.2 24 120 C16.08 120 8.16 120 0 120 C0 80.4 0 40.8 0 0 Z " fill="#513794" transform="translate(240,258)"/>
<path d="M0 0 C0 11.88 0 23.76 0 36 C12.21 36 24.42 36 37 36 C34.53925761 47.07334076 31.52544426 53.71849758 22.44140625 60.52734375 C16.31722373 64.22145065 11.21607755 65.55809357 4.1875 65.5 C3.39432373 65.49500488 2.60114746 65.49000977 1.78393555 65.48486328 C-4.78615729 65.28986513 -9.61186348 63.87821726 -15 60 C-15.96099609 59.38318359 -15.96099609 59.38318359 -16.94140625 58.75390625 C-23.30670259 54.12085038 -27.64399531 45.70389476 -29 38 C-29.67260754 29.76331425 -29.33374752 23.1323431 -25 16 C-24.59910156 15.31292969 -24.19820313 14.62585938 -23.78515625 13.91796875 C-18.48110951 5.87734138 -9.68044429 0 0 0 Z " fill="#4E3493" transform="translate(145,211)"/>
<path d="M0 0 C7.92 0 15.84 0 24 0 C24 30.36 24 60.72 24 92 C16.08 92 8.16 92 0 92 C0 61.64 0 31.28 0 0 Z " fill="#513795" transform="translate(280,286)"/>
<path d="M0 0 C0.88798279 -0.0065712 1.77596558 -0.0131424 2.69085693 -0.01991272 C5.63798095 -0.03966948 8.58505393 -0.05131412 11.53222656 -0.0612793 C12.53789925 -0.06535482 13.54357193 -0.06943035 14.57971954 -0.07362938 C19.9034047 -0.0945011 25.227064 -0.10879757 30.55078125 -0.11816406 C36.04995559 -0.12922574 41.54872497 -0.16361986 47.0477562 -0.20333576 C51.27541862 -0.22948306 55.50298434 -0.23785427 59.73072052 -0.24144554 C61.75770042 -0.24631703 63.78467585 -0.25794697 65.81157684 -0.27648354 C68.6507522 -0.30083271 71.48887718 -0.29991751 74.328125 -0.29296875 C75.5814563 -0.31218384 75.5814563 -0.31218384 76.86010742 -0.33178711 C82.71298848 -0.27964672 86.18812388 0.94227427 90.42285156 5.17700195 C90.73144531 7.06762695 90.73144531 7.06762695 90.86035156 9.42700195 C90.9209375 10.1952832 90.98152344 10.96356445 91.04394531 11.75512695 C90.26346638 14.79850392 88.72628139 16.18012167 86.3040638 18.10694695 C82.78043663 20.11122633 79.1556742 19.86265535 75.19213867 19.80810547 C73.82761818 19.81883842 73.82761818 19.81883842 72.43553162 19.82978821 C69.43990284 19.84664525 66.44577677 19.82729151 63.45019531 19.8059082 C61.36324439 19.8067371 59.27629353 19.80919728 57.18934631 19.81321716 C52.8206105 19.81607303 48.45238797 19.80139295 44.08374023 19.77392578 C38.48582593 19.73982257 32.88882806 19.74587044 27.29086971 19.76458836 C22.98340728 19.77515911 18.67615791 19.76622011 14.36871529 19.75120354 C12.30465897 19.74602327 10.24058039 19.74650163 8.17652702 19.75274849 C5.29192146 19.75820234 2.40862616 19.73782059 -0.47583008 19.71044922 C-1.32739685 19.7169751 -2.17896362 19.72350098 -3.05633545 19.73022461 C-7.09120147 19.66516398 -9.09643092 19.48214875 -12.58348083 17.2686615 C-15.15953135 14.56599399 -15.52642146 13.62509028 -15.95214844 9.86450195 C-15.57714844 6.17700195 -15.57714844 6.17700195 -13.20214844 3.30200195 C-8.82978483 -0.23753049 -5.43965607 0.01733739 0 0 Z " fill="#513795" transform="translate(136.5771484375,140.822998046875)"/>
<path d="M0 0 C7.59 0 15.18 0 23 0 C23 26.07 23 52.14 23 79 C15.41 79 7.82 79 0 79 C0 52.93 0 26.86 0 0 Z " fill="#4D3292" transform="translate(320,298)"/>
<path d="M0 0 C7.59 0 15.18 0 23 0 C23 19.47 23 38.94 23 59 C15.41 59 7.82 59 0 59 C0 39.53 0 20.06 0 0 Z " fill="#4D3292" transform="translate(360,318)"/>
<path d="M0 0 C33.33 0 66.66 0 101 0 C101 2.64 101 5.28 101 8 C67.67 8 34.34 8 0 8 C0 5.36 0 2.72 0 0 Z " fill="#624A9F" transform="translate(294,232)"/>
<path d="M0 0 C32.67 0 65.34 0 99 0 C99 2.31 99 4.62 99 7 C66.33 7 33.66 7 0 7 C0 4.69 0 2.38 0 0 Z " fill="#4D3292" transform="translate(295,259)"/>
<path d="M0 0 C32.67 0 65.34 0 99 0 C99 2.31 99 4.62 99 7 C66.33 7 33.66 7 0 7 C0 4.69 0 2.38 0 0 Z " fill="#4D3292" transform="translate(295,206)"/>
<path d="M0 0 C8.89897404 1.27128201 15.95232116 4.1327759 22 11 C26.09965489 17.1125485 27.94180736 21.5926515 29 29 C19.43 29 9.86 29 0 29 C0 19.43 0 9.86 0 0 Z " fill="#4F3593" transform="translate(153,211)"/>
<path d="M0 0 C21.78 0 43.56 0 66 0 C66 2.31 66 4.62 66 7 C44.22 7 22.44 7 0 7 C0 4.69 0 2.38 0 0 Z " fill="#503594" transform="translate(116,363)"/>
<path d="M0 0 C21.78 0 43.56 0 66 0 C66 2.31 66 4.62 66 7 C44.22 7 22.44 7 0 7 C0 4.69 0 2.38 0 0 Z " fill="#533996" transform="translate(116,340)"/>
<path d="M0 0 C21.78 0 43.56 0 66 0 C66 2.31 66 4.62 66 7 C44.22 7 22.44 7 0 7 C0 4.69 0 2.38 0 0 Z " fill="#4E3493" transform="translate(116,318)"/>
<path d="M0 0 C21.78 0 43.56 0 66 0 C66 2.31 66 4.62 66 7 C44.22 7 22.44 7 0 7 C0 4.69 0 2.38 0 0 Z " fill="#553B97" transform="translate(116,295)"/>
<path d="M0 0 C3.75212276 2.01502889 5.63644095 3.45466142 8 7 C8.42763893 12.30272272 8.53414849 15.75902182 5 20 C1.97073401 22.49072981 -0.11904534 23.85317422 -4 24.5 C-8.81195372 23.69800771 -11.74515477 21.41676074 -14.9375 17.8125 C-16.51287239 13.64239663 -16.44416849 10.22141559 -15 6 C-10.9996847 0.35113978 -6.66121467 -1.05733566 0 0 Z " fill="#513794" transform="translate(383,139)"/>
<path d="M0 0 C3.64331077 1.61924923 6.20425519 3.40851039 8 7 C8.58377585 11.26236343 8.44772276 14.85581962 6.875 18.875 C3.7685724 22.39561795 0.6093583 23.76530191 -4 24.4375 C-7.88576111 23.8708265 -9.97792261 22.47260877 -13 20 C-15.55503235 15.83172198 -15.83282523 11.76606911 -15 7 C-11.4310405 0.60506142 -7.03291516 -0.75739086 0 0 Z " fill="#503694" transform="translate(285,139)"/>
<path d="M0 0 C3.64331077 1.61924923 6.20425519 3.40851039 8 7 C8.66298964 10.81765466 8.87514728 14.35736245 7.015625 17.84765625 C3.81540491 21.86768581 1.13181393 23.72193731 -3.875 24.375 C-7.84487514 23.89861498 -9.89536536 22.46959574 -13 20 C-15.82792793 15.7581081 -15.78122286 11.98126257 -15 7 C-11.53716049 0.56349533 -6.97619854 -0.75128292 0 0 Z " fill="#503694" transform="translate(334,139)"/>
</svg>
